<?xml version="1.0" encoding="utf-8"?>
<svg viewBox="148.9 181.049 134.518 133.672" width="134.518" height="133.672" xmlns="http://www.w3.org/2000/svg">
  <ellipse style="stroke: rgb(0, 0, 0); fill: rgb(235, 38, 38);" cx="216.159" cy="247.885" rx="67.259" ry="66.836"/>
  <g id="svgGroup" stroke-linecap="round" fill-rule="evenodd" font-size="9pt" stroke="#000" stroke-width="0.25mm" fill="#000" style="stroke: rgb(0, 0, 0); stroke-width: 0.25mm; fill: rgb(0, 0, 0);" transform="matrix(1.652465, 0, 0, 1.437211, 130.148788, 135.599518)">
    <g id="g-1" stroke-linecap="round" fill-rule="evenodd" font-size="9pt" stroke="#000" stroke-width="0.25mm" fill="#000" style="stroke:#000;stroke-width:0.25mm;fill:#000" transform="matrix(1, 0, 0, 1, 25.408268, 36.245224)">
      <path d="M 52.353 68.001 L 52.353 68.101 Q 52.438 68.016 52.451 67.643 A 4.146 4.146 0 0 0 52.453 67.501 A 0.144 0.144 0 0 1 52.581 67.581 Q 52.646 67.689 52.652 67.946 A 2.293 2.293 0 0 1 52.653 68.001 L 52.653 67.601 A 0.912 0.912 0 0 1 52.722 67.489 Q 52.853 67.301 53.153 67.001 Q 53.413 66.871 53.589 66.741 A 1.468 1.468 0 0 0 53.753 66.601 L 55.653 66.601 A 13.3 13.3 0 0 0 56.031 67.116 Q 56.385 67.574 56.679 67.849 A 2.928 2.928 0 0 0 56.853 68.001 L 57.053 69.001 A 0.963 0.963 0 0 0 56.972 69.226 A 0.817 0.817 0 0 0 56.953 69.401 Q 56.953 69.535 56.908 69.624 A 0.296 0.296 0 0 1 56.853 69.701 Q 56.853 69.8 56.658 70.191 A 8.576 8.576 0 0 1 56.653 70.201 Q 56.553 70.601 56.253 70.901 Q 55.653 71.901 54.753 72.701 A 9.126 9.126 0 0 1 48.313 75.215 A 11.489 11.489 0 0 1 47.753 75.201 A 10.072 10.072 0 0 1 40.741 71.507 A 12.571 12.571 0 0 1 40.653 71.401 Q 39.353 69.601 38.453 67.601 Q 37.553 65.601 36.853 63.401 Q 35.553 57.901 34.703 52.351 Q 33.853 46.801 33.453 41.101 Q 33.253 38.401 33.003 35.751 Q 32.753 33.101 32.553 30.401 L 4.453 74.001 A 3.801 3.801 0 0 1 3.964 74.71 Q 2.884 75.925 1.154 75.192 A 4.879 4.879 0 0 1 0.953 75.101 Q -0.776 73.276 0.632 71.451 A 4.506 4.506 0 0 1 0.753 71.301 L 31.653 23.101 A 0.879 0.879 0 0 0 31.691 23.061 Q 31.753 22.991 31.753 22.951 A 0.078 0.078 0 0 1 31.76 22.922 Q 31.777 22.88 31.839 22.815 A 1.045 1.045 0 0 1 31.853 22.801 Q 31.753 21.701 31.603 20.651 Q 31.453 19.601 31.353 18.501 Q 31.153 16.401 30.753 14.301 A 61.318 61.318 0 0 0 30.097 11.264 A 54.002 54.002 0 0 0 29.853 10.301 A 11.447 11.447 0 0 0 29.357 8.849 Q 29.047 8.117 28.658 7.543 A 5.595 5.595 0 0 0 28.153 6.901 L 27.953 6.901 A 8.26 8.26 0 0 0 26.71 5.966 Q 25.331 5.132 23.953 5.201 A 5.827 5.827 0 0 0 22.221 5.669 A 5.101 5.101 0 0 0 21.053 6.401 Q 20.253 7.301 19.503 8.201 A 12.191 12.191 0 0 0 18.305 9.929 A 13.595 13.595 0 0 0 18.153 10.201 A 3.088 3.088 0 0 1 17.609 10.928 Q 16.648 11.857 15.053 11.401 A 2.861 2.861 0 0 1 14.264 10.776 Q 13.422 9.799 13.844 8.137 A 5.621 5.621 0 0 1 13.853 8.101 Q 14.653 6.501 15.753 5.101 Q 16.853 3.701 18.053 2.501 Q 20.553 0.501 23.653 0.001 Q 27.753 0.001 30.753 2.701 A 10.649 10.649 0 0 1 33.209 5.572 A 9.59 9.59 0 0 1 34.353 8.801 Q 34.953 11.001 35.403 13.301 Q 35.853 15.601 36.253 17.901 Q 36.753 23.601 37.303 29.301 Q 37.853 35.001 38.253 40.901 Q 38.553 46.201 39.353 51.451 Q 40.153 56.701 41.453 61.901 Q 41.953 63.601 42.703 65.201 Q 43.453 66.801 44.453 68.301 A 5.249 5.249 0 0 0 45.53 69.358 A 3.893 3.893 0 0 0 47.853 70.101 A 7.969 7.969 0 0 0 48.467 70.134 Q 48.972 70.141 49.43 70.077 A 5.32 5.32 0 0 0 49.853 70.001 A 3.18 3.18 0 0 0 51.32 69.228 A 3.845 3.845 0 0 0 51.453 69.101 A 7.033 7.033 0 0 1 51.536 68.941 Q 51.651 68.723 51.725 68.633 A 0.411 0.411 0 0 1 51.753 68.601 A 1.309 1.309 0 0 1 51.665 68.505 Q 51.288 68.045 52.175 68.005 A 3.996 3.996 0 0 1 52.353 68.001 Z M 51.753 68.601 Q 51.853 68.501 51.753 68.601" vector-effect="non-scaling-stroke" style="fill: rgb(255, 255, 255); stroke: rgb(255, 255, 255);"/>
    </g>
  </g>
</svg>